<?xml version="1.0" standalone="no"?>
<!DOCTYPE svg PUBLIC "-//W3C//DTD SVG 20010904//EN"
 "http://www.w3.org/TR/2001/REC-SVG-20010904/DTD/svg10.dtd">
<svg version="1.0" xmlns="http://www.w3.org/2000/svg"
 width="700.000000pt" height="700.000000pt" viewBox="0 0 700.000000 700.000000"
 preserveAspectRatio="xMidYMid meet">
<metadata>
Created by potrace 1.11, written by Peter Selinger 2001-2013
</metadata>
<g transform="translate(0.000000,700.000000) scale(0.100000,-0.100000)"
fill="#000000" stroke="none">
<path d="M174 6984 c-57 -20 -114 -72 -144 -130 l-25 -49 -3 -3291 c-2 -3708
-11 -3344 78 -3434 90 -89 -274 -80 3434 -78 3257 3 3291 3 3331 23 60 29 119
94 138 150 16 45 17 303 16 3334 0 3191 -1 3287 -19 3328 -27 61 -97 127 -155
146 -44 16 -305 17 -3329 16 -2851 0 -3286 -2 -3322 -15z"/>
</g>
</svg>
